<svg xmlns="http://www.w3.org/2000/svg" viewBox="0 0 260 291">
<title>Ko-Fi</title>
  <path fill="#a5adcb" d="M28.2534 236.438C28.2534 236.438 117.813 236.159 157.885 235.855C184.297 230.787 186.951 205.337 186.68 191.442C233.827 194.291 267.085 157.771 258.711 109.186C250.337 60.6008 206.072 54.5625 206.072 54.5625H7.83256C1.28923 54.5625 0.476725 64.0564 0.476725 64.0564C0.476725 64.0564 -0.411608 151.162 0.238392 204.658C2.01506 233.491 28.2534 236.438 28.2534 236.438ZM187.525 89.3976H206.7C206.7 89.3976 228.053 95.9573 228.053 120.777C228.053 143.536 217.382 152.496 205.747 156.643C195.693 158.025 187.525 156.97 187.525 156.97V89.3976ZM46.2042 106.288C56.5067 94.2719 78.7584 93.3746 93.4701 111.126C93.4701 111.126 110.424 89.9311 131.04 99.6675C151.667 109.416 150.887 135.473 138.873 150.944C125.374 168.222 95.4201 198.232 95.4201 198.232C95.4201 198.232 94.1092 199.65 92.0617 198.51C91.2384 197.831 90.8917 197.444 90.8917 197.444C86.0926 192.206 54.4051 161.178 47.1901 150.423C39.5092 138.94 35.9126 118.304 46.2042 106.288Z" />
</svg>
